<svg height="512pt" viewBox="0 -11 512.00015 512" width="512pt" xmlns="http://www.w3.org/2000/svg"><path d="m80.277344 304.367188c-4.464844-6.976563-13.742188-9.011719-20.71875-4.542969-6.976563 4.464843-9.007813 13.742187-4.542969 20.71875 4.46875 6.976562 13.742187 9.011719 20.71875 4.542969 6.976563-4.464844 9.007813-13.742188 4.542969-20.71875zm0 0"/><path d="m500.140625 34.707031c-22.425781-35.023437-68.917969-45.253906-103.996094-22.78125-184.472656 118.613281-104.394531 67.234375-352.421875 226.121094-44.089844 28.242187-56.992187 87.09375-28.761718 131.1875l73.238281 114.390625c4.460937 6.96875 13.746093 9.011719 20.726562 4.539062l269.957031-172.933593c6.972657-4.46875 9.007813-13.742188 4.539063-20.71875l-43.277344-67.59375 137.203125-88.226563c34.945313-22.382812 45.167969-69.03125 22.792969-103.984375zm-394.765625 420.101563-65.144531-101.75c-19.316407-30.164063-10.488281-70.429688 19.675781-89.753906l189.988281-121.707032 100.175781 156.460938zm355.769531-341.359375-137.175781 88.203125-48.824219-76.257813 137.207031-88.222656c21.066407-13.492187 49.027344-7.367187 62.519532 13.707031 13.460937 21.027344 7.3125 49.089844-13.726563 62.570313zm0 0"/><path d="m449.59375 67.191406c-4.46875-6.976562-13.742188-9.011718-20.71875-4.546875-6.976562 4.46875-9.007812 13.742188-4.542969 20.71875 4.464844 6.976563 13.742188 9.011719 20.71875 4.546875 6.976563-4.464844 9.007813-13.742187 4.542969-20.71875zm0 0"/><path d="m349.617188 131.191406c-4.464844-6.976562-13.742188-9.011718-20.71875-4.542968-6.972657 4.464843-9.007813 13.742187-4.542969 20.71875 4.46875 6.976562 13.742187 9.011718 20.71875 4.542968 6.976562-4.464844 9.011719-13.742187 4.542969-20.71875zm0 0"/></svg>